<?xml version="1.0" encoding="iso-8859-1"?>
<svg xmlns="http://www.w3.org/2000/svg" xmlns:xlink="http://www.w3.org/1999/xlink" version="1.1" viewBox="0 0 42.6 42.6" enable-background="new 0 0 42.6 42.6" width="512px" height="512px">
  <g>
    <g>
      <path d="M21.3,0C9.555,0,0,9.555,0,21.3s9.555,21.3,21.3,21.3c11.745,0,21.3-9.555,21.3-21.3S33.045,0,21.3,0z M21.3,39.6    C11.209,39.6,3,31.391,3,21.3S11.209,3,21.3,3c10.09,0,18.3,8.209,18.3,18.3S31.391,39.6,21.3,39.6z" fill="#933EC5"/>
    </g>
    <g>
      <path d="m31.1,19.6h-8.3v-8.3c0-0.828-0.671-1.5-1.5-1.5s-1.5,0.672-1.5,1.5v8.3h-8.3c-0.829,0-1.5,0.672-1.5,1.5s0.671,1.5 1.5,1.5h8.3v8.3c0,0.828 0.671,1.5 1.5,1.5s1.5-0.672 1.5-1.5v-8.3h8.3c0.829,0 1.5-0.672 1.5-1.5s-0.671-1.5-1.5-1.5z" fill="#933EC5"/>
    </g>
  </g>
</svg>
